<svg version="1.1" id="Layer_1" xmlns="http://www.w3.org/2000/svg" xmlns:xlink="http://www.w3.org/1999/xlink" x="0px" y="0px"
	 width="100%" viewBox="0 0 1024 1024" enable-background="new 0 0 1024 1024" xml:space="preserve">
<path fill="#000000" opacity="1.000000" stroke="none" 
	d="
M599.237549,189.627518 
	C624.438171,198.568848 647.390503,210.929871 668.524536,226.629761 
	C689.523865,242.229675 707.704224,260.694641 723.558777,281.477417 
	C739.515869,302.394653 750.938232,325.889862 762.334045,350.733307 
	C763.704773,347.724457 764.638306,345.712830 765.541077,343.687500 
	C770.812195,331.861267 781.441101,326.924896 792.314758,326.973358 
	C804.733215,327.028687 815.372498,334.813080 818.978699,345.397339 
	C822.987244,357.162354 819.666321,369.753235 810.128174,377.537811 
	C804.222290,382.357880 797.597473,385.666504 789.609131,385.367615 
	C782.638245,385.106842 777.481934,389.497559 771.995422,392.814148 
	C769.462524,394.345306 770.268677,397.330444 770.458374,399.755127 
	C776.053528,471.261932 755.621521,534.249512 708.457336,588.355530 
	C675.229126,626.474426 633.445435,651.401672 585.392029,665.869080 
	C556.010559,674.714966 525.903809,677.690613 495.071045,675.626953 
	C453.524017,672.846069 415.724609,659.489136 380.357300,638.332886 
	C344.552368,616.914856 315.467224,588.572327 293.721893,552.874939 
	C280.728760,531.545227 271.538666,508.572357 264.605835,484.634766 
	C261.129944,472.633270 259.253937,460.346924 257.675140,447.999725 
	C256.982605,442.583679 252.086853,439.748016 246.800018,441.839417 
	C230.375381,448.336792 213.215302,441.122711 207.815674,424.740845 
	C201.631012,405.977325 217.693634,385.087982 237.628723,387.275940 
	C244.788437,388.061768 250.400299,391.441284 256.505096,395.208069 
	C258.918488,385.874146 261.050995,377.020935 263.499664,368.256042 
	C277.683380,317.485992 304.640625,274.843292 344.046997,239.722778 
	C379.514771,208.112488 420.412872,187.735809 466.780334,178.456085 
	C489.357086,173.937698 512.217896,173.100143 535.305847,175.347214 
	C557.160828,177.474274 578.315796,181.926376 599.237549,189.627518 
M419.890839,386.464722 
	C451.296753,335.331421 483.047943,284.411469 513.387085,232.963745 
	C516.132080,233.802673 516.692688,235.263855 517.455750,236.534363 
	C523.972656,247.385284 530.396362,258.293365 537.016541,269.080902 
	C567.679810,319.046539 598.414673,368.968262 629.055725,418.947479 
	C631.055359,422.209290 632.870789,423.273773 636.636841,421.233002 
	C664.894958,405.920166 693.231018,390.750183 721.615784,375.673035 
	C725.174683,373.782623 725.141174,371.256927 724.184509,368.170532 
	C721.766907,360.371307 718.803528,352.777069 715.453857,345.333313 
	C699.792542,310.530396 676.161926,282.120483 645.872375,259.169800 
	C609.520630,231.625656 568.623596,215.503326 523.052124,212.535980 
	C502.414490,211.192169 481.759979,213.165726 461.739807,218.906219 
	C397.500610,237.325943 350.342590,276.983734 318.243530,335.105713 
	C305.397797,358.365570 300.043549,383.898712 296.425415,409.873810 
	C295.299072,417.959869 295.790344,418.445312 303.038269,422.344421 
	C304.797455,423.290833 306.595520,424.164764 308.370911,425.081207 
	C329.385895,435.929169 350.409149,446.761139 371.403351,457.649139 
	C374.220917,459.110352 376.197388,459.688934 378.281830,456.153137 
	C391.898132,433.056244 405.747345,410.096649 419.890839,386.464722 
M657.880005,555.653748 
	C659.666565,555.543274 661.591553,555.858276 662.861267,554.058899 
	C663.112854,551.656250 661.550781,549.961670 660.456116,548.167603 
	C653.430847,536.653442 646.341614,525.178101 639.225464,513.719788 
	C633.075256,503.816925 626.833557,493.970856 620.690247,484.063782 
	C618.345337,480.282196 616.257812,478.964935 611.700500,481.966125 
	C602.536865,488.000702 592.735779,493.060699 583.292725,498.682312 
	C580.954895,500.074036 579.315552,500.153778 577.094299,498.352844 
	C558.596252,483.354675 539.891785,468.608215 521.901306,452.994812 
	C519.906006,451.263123 517.838806,450.599823 515.243103,450.186401 
	C509.264893,449.234283 505.960327,453.202057 502.461395,456.565186 
	C480.369568,477.799408 458.545502,499.314331 436.308807,520.394531 
	C427.630646,528.621399 418.856750,531.049072 407.679932,524.638062 
	C403.201874,522.069519 398.645477,519.636475 394.187958,517.033508 
	C391.112000,515.237305 388.961395,515.248230 386.886993,518.780457 
	C380.479584,529.690979 373.740295,540.406311 367.167511,551.220337 
	C366.507782,552.305725 365.557526,553.423523 366.676880,555.657959 
	C463.215179,555.657959 560.110962,555.657959 657.880005,555.653748 
M560.035706,384.389008 
	C544.956482,360.448792 530.738770,335.952820 514.233276,312.410706 
	C479.720490,367.621613 444.991760,421.916595 412.110260,476.971039 
	C416.219849,481.148193 418.970642,481.032898 422.265594,477.610779 
	C427.224182,472.460785 432.726105,467.838287 437.907593,462.897736 
	C452.603577,448.885162 467.912506,435.512299 481.913239,420.774139 
	C483.173004,419.447998 484.443298,418.129608 484.622772,416.133453 
	C485.117340,410.632690 487.732178,405.994263 490.813110,401.612671 
	C497.449524,392.174683 509.911926,387.971893 521.408447,391.175201 
	C533.001038,394.405304 542.630798,405.358124 543.250671,416.477661 
	C543.407532,419.290466 544.419312,421.022522 546.508667,422.721497 
	C555.809814,430.284821 564.952942,438.033386 574.525208,445.271301 
	C582.148682,451.035736 581.995911,451.237823 590.156860,446.585968 
	C590.301575,446.503571 590.436584,446.399628 590.588562,446.334991 
	C595.015320,444.451874 595.467224,441.862823 592.895447,437.751953 
	C581.945251,420.248413 571.237427,402.593262 560.035706,384.389008 
M624.156860,606.629761 
	C629.507141,603.013794 635.542542,600.330444 640.873901,595.576355 
	C636.038757,593.810608 390.651245,593.916382 387.280090,595.325439 
	C389.035980,597.696594 391.615448,598.982727 393.977203,600.428101 
	C417.803253,615.009399 442.742432,626.931458 470.300262,632.802551 
	C494.249420,637.904907 518.254639,639.166321 542.521240,635.422241 
	C571.310669,630.980469 598.198120,621.248474 624.156860,606.629761 
M725.241394,418.776733 
	C718.262634,422.667664 711.291931,426.573242 704.303345,430.446442 
	C688.875488,438.996857 673.452942,447.556946 657.993103,456.049133 
	C655.010437,457.687500 653.959534,459.229614 656.062744,462.657440 
	C667.988647,482.094971 679.596802,501.727509 691.529358,521.160889 
	C693.888611,525.003296 695.701416,529.411194 699.533508,532.269653 
	C717.611267,513.006104 738.944763,433.114532 730.510925,416.747528 
	C730.039673,416.824280 729.520325,416.822418 729.071350,416.999207 
	C727.989929,417.425201 726.941345,417.934753 725.241394,418.776733 
M304.710052,480.890717 
	C311.038239,498.904907 318.366669,516.433594 328.850494,532.668884 
	C330.201691,531.909790 331.005829,531.736633 331.296173,531.254150 
	C338.161774,519.847107 344.970551,508.405823 351.793701,496.973175 
	C353.299347,494.450348 351.609894,493.348236 349.738678,492.342773 
	C342.114105,488.245667 334.502258,484.124268 326.851074,480.077271 
	C320.524597,476.730957 314.155396,473.465179 307.791565,470.189972 
	C306.306641,469.425720 304.610504,468.477417 303.122467,469.715637 
	C301.628693,470.958588 302.348663,472.802277 302.763428,474.393768 
	C303.266083,476.322693 303.879517,478.222809 304.710052,480.890717 
z"/>
<path fill="#000000" opacity="1.000000" stroke="none" 
	d="
M234.666733,756.999878 
	C234.669739,744.174072 234.674271,731.848206 234.675415,719.522400 
	C234.675629,717.112427 234.576843,714.634827 238.083847,714.730591 
	C253.543289,715.152466 269.121399,713.145325 284.449371,715.824036 
	C305.125824,719.437378 320.095367,731.153381 326.601685,751.189697 
	C332.936615,770.698181 328.742401,788.778992 314.052155,803.654907 
	C303.786957,814.049866 290.835907,819.223328 276.489624,820.198303 
	C264.222717,821.031860 251.877472,820.662659 239.571854,821.004456 
	C235.413513,821.119934 234.608826,819.077209 234.627914,815.464478 
	C234.729965,796.143433 234.670609,776.821533 234.666733,756.999878 
M299.901703,753.702148 
	C298.607819,751.974304 297.417328,750.156372 296.003265,748.533203 
	C286.825378,737.998047 274.556274,737.722229 262.023834,738.427124 
	C259.429230,738.573059 259.406799,740.622437 259.408691,742.465881 
	C259.423492,756.772705 259.175110,771.089172 259.621429,785.383423 
	C259.987976,797.122559 260.361084,797.114868 272.375000,796.673035 
	C299.248322,795.684814 309.912323,771.517578 299.901703,753.702148 
z"/>
<path fill="#000000" opacity="1.000000" stroke="none" 
	d="
M441.149567,723.069092 
	C441.195679,738.362854 441.195679,738.359314 426.168976,738.359009 
	C416.673798,738.358826 407.177094,738.471497 397.684296,738.324463 
	C394.224609,738.270874 392.927917,739.596802 392.938110,742.995972 
	C392.985260,758.677795 391.647247,755.501831 405.000732,755.763855 
	C412.660400,755.914185 420.329498,755.915833 427.986847,755.708679 
	C431.782196,755.606018 433.533447,756.794312 433.327606,760.809509 
	C433.106171,765.128723 433.092926,769.481995 433.367920,773.796326 
	C433.621857,777.780518 431.954773,779.101013 428.153320,779.044373 
	C418.326996,778.897888 408.492188,779.155396 398.671356,778.876953 
	C393.923676,778.742249 392.181488,780.316101 392.333160,785.173279 
	C392.786835,799.700012 390.228333,797.478210 404.713013,797.640625 
	C415.039795,797.756470 425.371704,797.802002 435.695587,797.594238 
	C439.700287,797.513672 441.548615,798.668701 441.293152,802.932007 
	C441.014587,807.581177 441.090363,812.258545 441.179016,816.920471 
	C441.239929,820.123718 439.875214,821.322571 436.686279,821.311218 
	C415.364075,821.235229 394.041290,821.225281 372.719177,821.315491 
	C369.096954,821.330811 367.633514,819.998596 367.691650,816.330872 
	C367.826202,807.837524 367.697662,799.340332 367.698792,790.844666 
	C367.701813,767.523193 367.831177,744.200745 367.631561,720.881042 
	C367.591003,716.142700 368.906708,714.530640 373.797272,714.590637 
	C393.617523,714.833679 413.442535,714.688416 433.265778,714.687317 
	C441.120056,714.686890 441.120056,714.687988 441.149567,723.069092 
z"/>
<path fill="#000000" opacity="1.000000" stroke="none" 
	d="
M701.462036,783.521545 
	C711.567688,762.116089 721.591370,741.087524 731.354065,719.938477 
	C733.148499,716.051208 735.388000,714.125183 739.698914,714.651672 
	C741.500671,714.871765 743.368896,714.782288 745.184448,714.604248 
	C748.288208,714.299805 749.896912,715.620667 751.247559,718.468140 
	C766.434448,750.485046 781.775452,782.428772 797.050049,814.404114 
	C797.820251,816.016418 799.116577,817.484802 798.762146,819.669006 
	C795.694397,821.897705 792.037842,820.311768 788.727661,820.957336 
	C776.368469,823.367554 768.390259,818.933777 765.093872,806.519592 
	C763.044617,798.801819 757.890503,796.526001 750.099426,797.230835 
	C742.174133,797.947754 734.130859,797.460022 726.142212,797.325195 
	C723.290283,797.277039 721.485779,798.218628 720.252747,800.860962 
	C717.720459,806.287231 714.835388,811.549927 712.344971,816.994080 
	C710.981262,819.975098 709.017578,821.225525 705.756226,821.159363 
	C698.821167,821.018677 691.881409,821.116455 683.369141,821.116455 
	C689.716858,807.919006 695.503540,795.887939 701.462036,783.521545 
M738.000977,763.505249 
	C736.714844,767.337524 734.030396,770.672485 733.582031,775.411316 
	C739.366272,775.885986 744.772766,775.897339 750.831116,775.431458 
	C747.866211,768.485474 745.443542,762.481384 741.869690,756.809082 
	C739.666016,758.741577 739.345154,760.992737 738.000977,763.505249 
z"/>
<path fill="#000000" opacity="1.000000" stroke="none" 
	d="
M602.814514,738.320312 
	C596.343689,738.317078 590.345947,738.221313 584.352966,738.346741 
	C581.132812,738.414185 579.816406,737.023499 579.852783,733.893860 
	C579.910889,728.898376 579.890808,723.900635 579.814026,718.905273 
	C579.769470,716.008179 580.957336,714.667664 583.966614,714.672424 
	C609.781555,714.713379 635.596741,714.704285 661.411743,714.658875 
	C664.139404,714.654053 665.351013,715.742004 665.308960,718.504822 
	C665.230530,723.666443 665.188049,728.833374 665.336731,733.992126 
	C665.429871,737.224426 664.110229,738.452148 660.913147,738.374268 
	C655.253967,738.236328 649.588806,738.344604 643.926147,738.350037 
	C635.130920,738.358521 635.149536,738.358582 635.172729,747.398132 
	C635.230042,769.715576 635.276855,792.033081 635.309753,814.350525 
	C635.319824,821.203735 635.292786,821.207031 628.381348,821.216919 
	C623.884521,821.223328 619.383972,821.106750 614.892090,821.255859 
	C611.539856,821.367126 609.990417,820.075562 610.009216,816.629700 
	C610.137512,793.148438 610.091614,769.665588 610.344849,746.185913 
	C610.424072,738.842407 610.354858,738.383118 602.814514,738.320312 
z"/>
<path fill="#000000" opacity="1.000000" stroke="none" 
	d="
M485.845947,715.682373 
	C493.201508,713.953125 500.358154,714.850159 507.484802,714.757446 
	C510.347382,714.720215 510.314209,717.018005 510.317352,719.069885 
	C510.329620,727.066345 510.332733,735.062866 510.335083,743.059326 
	C510.339844,759.218933 510.452026,775.379822 510.267639,791.537292 
	C510.221558,795.576904 511.461639,797.033936 515.588196,797.246765 
	C527.581421,797.865295 539.571472,797.536560 551.558411,797.506531 
	C555.828430,797.495789 557.682190,798.708252 557.373901,803.179260 
	C557.076599,807.490173 557.120483,811.848328 557.364563,816.165955 
	C557.587708,820.114746 556.034180,821.364868 552.144775,821.333374 
	C531.654907,821.167542 511.162811,821.136780 490.672729,821.262756 
	C486.632538,821.287537 485.538147,819.691284 485.569427,815.932739 
	C485.692871,801.107117 485.665131,786.279236 485.569275,771.453003 
	C485.461609,754.798645 485.201233,738.145386 485.062988,721.491089 
	C485.047974,719.682190 485.401520,717.870239 485.845947,715.682373 
z"/>
<path fill="#000000" opacity="1.000000" stroke="none" 
	d="
M658.776428,877.333496 
	C658.841614,871.850830 659.008362,866.691040 658.847412,861.541443 
	C658.733154,857.885925 660.142273,856.595093 663.820007,856.580933 
	C667.634888,856.566284 669.179138,857.746460 669.117371,861.730103 
	C668.954895,872.205505 669.153870,882.686096 669.124573,893.164368 
	C669.118896,895.214050 669.743958,897.693115 666.958679,898.683105 
	C664.172729,899.673218 662.419800,898.156799 660.424072,896.367004 
	C653.869873,890.489258 647.089172,884.864136 641.197083,879.827209 
	C640.669067,882.808350 641.186462,888.229736 641.276733,893.592529 
	C641.341675,897.449707 639.924072,898.930420 636.089111,899.013794 
	C631.972900,899.103149 630.996155,897.079468 631.033203,893.476440 
	C631.142578,882.832825 631.038635,872.187073 631.136719,861.543213 
	C631.155273,859.528625 630.458984,856.827820 633.257385,856.039307 
	C635.868713,855.303406 637.453857,857.234070 639.088562,859.012573 
	C644.596741,865.005493 650.194885,870.916870 655.838623,876.782410 
	C656.506165,877.476196 657.139343,879.537415 658.776428,877.333496 
z"/>
<path fill="#000000" opacity="1.000000" stroke="none" 
	d="
M618.393555,879.710205 
	C617.178833,891.612671 607.959961,899.348450 595.520508,899.281311 
	C584.193115,899.220154 574.837891,891.282532 574.203186,880.237793 
	C573.527527,868.483154 578.675720,859.777466 591.797546,856.693481 
	C607.236755,853.064880 619.719727,867.065247 618.393555,879.710205 
M584.470398,880.762085 
	C585.117859,882.100403 585.573486,883.581726 586.445740,884.752686 
	C590.482849,890.171997 599.011230,890.803650 604.229370,886.168091 
	C609.438354,881.540710 609.646851,875.072632 604.751343,869.978943 
	C601.114075,866.194397 596.138184,865.068359 591.538452,866.989014 
	C586.697571,869.010315 584.279175,873.392517 584.470398,880.762085 
z"/>
<path fill="#000000" opacity="1.000000" stroke="none" 
	d="
M366.018555,888.766357 
	C360.604889,877.526978 362.678223,866.321045 371.051300,860.198486 
	C379.641357,853.917297 392.582855,854.591919 400.490723,862.156982 
	C405.989044,867.416931 408.362946,874.065979 406.547241,881.675476 
	C404.660156,889.584045 400.545776,895.593872 392.074432,897.795532 
	C381.202179,900.621216 372.392700,897.756104 366.018555,888.766357 
M385.326416,865.632141 
	C383.868225,865.919617 382.347565,866.031799 380.962708,866.525146 
	C375.264069,868.555542 372.101776,874.283325 373.410736,879.987305 
	C374.712494,885.659973 380.597931,890.085938 385.831787,889.328247 
	C392.568146,888.352966 396.758698,883.674011 396.660156,877.237610 
	C396.576324,871.762085 393.106567,868.021118 385.326416,865.632141 
z"/>
<path fill="#000000" opacity="1.000000" stroke="none" 
	d="
M466.034058,856.682617 
	C470.257874,856.225525 471.449646,858.029053 471.351868,861.613525 
	C471.179565,867.929321 471.238831,874.255798 471.371948,880.574219 
	C471.494171,886.377380 474.998871,889.831055 480.317535,889.679504 
	C485.247040,889.539001 487.709106,886.586853 487.775879,880.527527 
	C487.836395,875.039124 487.766663,869.549316 487.759674,864.060120 
	C487.749695,856.218567 489.628113,854.929810 497.339935,857.432617 
	C497.339935,865.899109 497.423065,874.351196 497.318085,882.800964 
	C497.197723,892.486938 490.714417,898.969910 481.006378,899.321045 
	C470.253326,899.709900 462.361389,893.691101 461.797028,883.999451 
	C461.343323,876.207764 461.730530,868.369019 461.666656,860.551819 
	C461.644318,857.815491 462.845276,856.543152 466.034058,856.682617 
z"/>
<path fill="#000000" opacity="1.000000" stroke="none" 
	d="
M688.216919,876.758057 
	C681.402466,867.223572 686.194763,857.412415 698.121460,855.820862 
	C702.489868,855.237915 706.752930,855.876343 710.803162,857.706055 
	C715.300110,859.737488 715.493652,860.593079 712.271362,864.535889 
	C711.335693,865.680725 710.342285,866.778259 709.364197,867.910400 
	C706.155640,867.292053 703.676147,864.843689 700.256104,865.238464 
	C697.930664,865.506958 695.691223,865.837280 695.427185,868.515137 
	C695.183044,870.991211 697.558105,871.051331 699.244568,871.596741 
	C702.402771,872.618042 705.662109,873.410156 708.690063,874.731262 
	C713.448364,876.807312 716.546936,880.257202 716.305237,885.873535 
	C716.081055,891.083923 712.725708,895.696960 707.510254,897.456726 
	C699.761169,900.071533 692.456421,898.854065 685.633423,894.442688 
	C683.821594,893.271301 682.164001,891.960083 684.261658,889.750427 
	C685.964539,887.956665 686.486389,883.789490 690.552185,886.258606 
	C693.553589,888.081360 696.505920,889.985779 700.254456,889.654297 
	C702.651611,889.442322 705.266052,889.106018 705.605164,886.232056 
	C705.931458,883.465942 703.432251,882.945557 701.328003,882.257141 
	C696.927917,880.817749 692.223206,880.099487 688.216919,876.758057 
z"/>
<path fill="#000000" opacity="1.000000" stroke="none" 
	d="
M344.235168,858.477661 
	C347.118561,860.057129 349.261047,861.502258 346.646667,864.753357 
	C344.689636,867.187195 343.356445,870.488037 339.374786,867.124207 
	C336.966522,865.089661 333.925049,864.717102 330.889191,865.913208 
	C329.618042,866.414062 328.470154,867.189514 328.557068,868.798340 
	C328.631256,870.171692 329.720276,870.772461 330.807343,871.206421 
	C332.812683,872.006897 334.806641,873.059875 336.900696,873.375916 
	C346.732269,874.859802 350.261627,881.741394 349.712830,887.271729 
	C349.067291,893.777649 343.710907,898.127808 334.918335,898.766296 
	C329.519501,899.158386 324.368195,897.696838 319.734802,894.747498 
	C317.870880,893.560974 316.491333,892.133911 318.290741,889.919128 
	C319.828949,888.025879 320.604431,884.669250 324.353455,886.609802 
	C326.265900,887.599670 328.303436,888.359070 330.315826,889.141846 
	C332.650269,890.049866 335.027557,889.766785 337.043457,888.475281 
	C339.550232,886.869385 340.213623,884.830261 336.858307,883.392334 
	C334.578552,882.415344 332.131439,881.825684 329.752991,881.082703 
	C320.414978,878.165955 316.637848,872.941284 318.673157,865.741638 
	C320.638153,858.790710 329.311066,854.262085 337.259399,856.148193 
	C339.514221,856.683228 341.685577,857.569946 344.235168,858.477661 
z"/>
<path fill="#000000" opacity="1.000000" stroke="none" 
	d="
M436.000031,899.205566 
	C432.004883,899.200195 428.506653,899.138062 425.010956,899.206177 
	C422.146484,899.261963 420.691254,898.136169 420.716553,895.102234 
	C420.812347,883.612488 420.849579,872.121948 420.843262,860.631714 
	C420.840851,856.214050 423.936798,856.797363 426.767670,856.674377 
	C430.163910,856.526917 431.214508,858.226807 430.802399,861.321106 
	C429.717896,869.464783 431.054901,877.617065 430.725433,885.760376 
	C430.624451,888.256592 431.846710,888.978149 434.029907,888.984985 
	C438.192932,888.998169 442.357361,889.149719 446.518250,889.075928 
	C450.362793,889.007751 451.231384,891.071716 451.191956,894.470154 
	C451.153137,897.813721 449.987946,899.403870 446.488068,899.230286 
	C443.165833,899.065613 439.828644,899.201416 436.000031,899.205566 
z"/>
<path fill="#000000" opacity="1.000000" stroke="none" 
	d="
M539.158203,857.634399 
	C540.717957,865.581909 540.302551,866.311890 533.036316,866.275574 
	C529.309082,866.256836 528.043701,867.598755 528.134827,871.242249 
	C528.326355,878.898376 528.110596,886.564331 528.271973,894.221741 
	C528.346741,897.769836 527.184326,899.320312 523.410889,899.344727 
	C519.567383,899.369568 518.558105,897.715454 518.631714,894.211914 
	C518.785461,886.887817 518.425354,879.547668 518.739197,872.234009 
	C518.939209,867.573547 517.217651,865.884277 512.687683,866.294434 
	C509.465454,866.586121 506.295746,866.746643 506.576202,861.682983 
	C506.772217,858.143982 507.762909,856.463135 511.519562,856.649963 
	C520.637024,857.103333 529.794678,855.905823 539.158203,857.634399 
z"/>
<path fill="#000000" opacity="1.000000" stroke="none" 
	d="
M561.089233,869.020264 
	C561.094788,877.813904 561.022583,886.112915 561.139526,894.409180 
	C561.186462,897.733643 560.036926,899.196472 556.521362,899.201294 
	C552.920715,899.206238 551.480530,897.970337 551.537598,894.262573 
	C551.706116,883.311707 551.719055,872.355652 551.572815,861.404480 
	C551.521790,857.589294 553.197266,856.630188 556.687805,856.600342 
	C560.408875,856.568420 561.230408,858.409607 561.088684,861.555237 
	C560.984253,863.873657 561.080505,866.201050 561.089233,869.020264 
z"/>
</svg>